# xmcd
#
# Track frame offsets: 
#        150
#        12797
#        23827
#        36280
#        49142
#        60187
#        69842
#        84212
#        94637
#        103187
#        116470
#        137212
#        148080
#        160165
#        170625
#        184642
#        197637
#        213202
#        227760
#        242307
#        252775
#        283017
#
# Disc length: 3930 seconds
#
# Revision: 0
# Processed by: cddbd v1.5.2PL0 Copyright (c) Steve Scherf et al.
# Submitted via: ExactAudioCopy v0.99pb4
#
DISCID=1f0f5816
DTITLE=Various Artist - Chess Blues Guitar: Two Decades of Killer Fretwork, 1
DTITLE=949-1969 [disc 2]
DYEAR=1998
DGENRE=Electric Blues
TTITLE0=Muddy Waters - Walking thru the Park
TTITLE1=Eddie Burns - Treat Me like I Treat You
TTITLE2=Lafayette Thomas - Claim on You
TTITLE3=Jimmy Rogers - Rock This House
TTITLE4=Otis Rush - I'm Satisfied
TTITLE5=Chuck Berry - I Still Got the Blues
TTITLE6=Buddy Guy - Broken Hearted Blues
TTITLE7=Elmore James - Talk to Me Baby (I Can't Hold Out)
TTITLE8=Bo Diddley - My Babe
TTITLE9=Albert King - Won't Be Hanging Around
TTITLE10=Bo Diddley - I Can Tell
TTITLE11=Howlin' Wolf - Hidden Charms
TTITLE12=Buddy Guy - Buddy's Boogie
TTITLE13=Little Milton - What Kind of Love Is This?
TTITLE14=Robert Nighthawk - Someday
TTITLE15=Howlin' Wolf - Killing Floor
TTITLE16=Buddy Guy - Leave My Girl Alone
TTITLE17=Clarence "Gatemouth" Brown - Cross My Heart
TTITLE18=Hound Dog Taylor - Watch Out
TTITLE19=Lonnie Brooks - One Sunny Day
TTITLE20=Little Milton - I Can't Quit You Baby
TTITLE21=Johnny Littlejohn - She's Too Much
EXTD=2CD: MCA/Chess CHD2-9393 (1998-01-13), UPC 076732939321, BMG D221
EXTD=728.
EXTT0=
EXTT1=
EXTT2=
EXTT3=
EXTT4=
EXTT5=
EXTT6=
EXTT7=
EXTT8=
EXTT9=
EXTT10=
EXTT11=
EXTT12=
EXTT13=
EXTT14=
EXTT15=
EXTT16=
EXTT17=
EXTT18=
EXTT19=
EXTT20=
EXTT21=
PLAYORDER=
